# AST/ASF file generated using VICON BodyLanguage
# -----------------------------------------------
:version 1.10
:name VICON
:units
  mass 1.0
  length 0.45
  angle deg
:documentation
   .ast/.asf automatically generated from VICON data using
   VICON BodyBuilder and BodyLanguage model FoxedUp or BRILLIANT.MOD
:root
   order TX TY TZ RX RY RZ
   axis XYZ
   position 0 0 0  
   orientation 0 0 0 
:bonedata
  begin
     id 1 
     name lhipjoint
     direction 0.561145 -0.797705 0.220866 
     length 2.46425 
     axis 0 0 0  XYZ
  end
  begin
     id 2 
     name lfemur
     direction 0.34202 -0.939693 0  
     length 7.95556  
     axis 0 0 20  XYZ
    dof rx ry rz
    limits (-160.0 20.0)
           (-70.0 70.0)
           (-60.0 70.0)
  end
  begin
     id 3 
     name ltibia
     direction 0.34202 -0.939693 0   
     length 7.9832   
     axis 0 0 20   XYZ
    dof rx
    limits (-10.0 170.0)
  end
  begin
     id 4 
     name lfoot
     direction 0.0723927 -0.198897 0.977343   
     length 2.23085   
     axis -90 7.62852e-016 20   XYZ
    dof rx rz
    limits (-45.0 90.0)
           (-70.0 20.0)
  end
  begin
     id 5 
     name ltoes
     direction 1.53826e-011 -4.21988e-011 1   
     length 1.12127   
     axis -90 7.62852e-016 20   XYZ
    dof rx
    limits (-90.0 20.0)
  end
  begin
     id 6 
     name rhipjoint
     direction -0.610499 -0.763299 0.21134   
     length 2.57533  
     axis 0 0 0  XYZ 
  end
  begin
     id 7 
     name rfemur
     direction -0.34202 -0.939693 0   
     length 8.65257   
     axis 0 0 -20   XYZ
    dof rx ry rz
    limits (-160.0 20.0)
           (-70.0 70.0)
           (-70.0 60.0)
  end
  begin
     id 8 
     name rtibia
     direction -0.342021 -0.939692 0   
     length 7.37807   
     axis 0 0 -20   XYZ
    dof rx
    limits (-10.0 170.0)
 end
 begin
     id 9 
     name rfoot
     direction -0.0239304 -0.0543852 0.998233   
     length 1.87018  
     axis -90 -7.62852e-016 -20   XYZ
    dof rx rz
    limits (-45.0 90.0)
           (-20.0 70.0)
  end
  begin
     id 10 
     name rtoes
     direction -1.53584e-011 -4.2242e-011 1   
     length 0.951568   
     axis -90 -7.62852e-016 -20   XYZ
    dof rx
    limits (-90.0 20.0)
  end
  begin
     id 11 
     name lowerback
     direction 0.00322089 0.999033 0.0438587   
     length 2.07568   
     axis 0 0 0   XYZ
    dof rx ry rz
    limits (-20.0 45.0)
           (-30.0 30.0)
           (-30.0 30.0)
  end
  begin
     id 12 
     name upperback
     direction -0.00321932 0.999732 -0.0229403   
     length 2.06253   
     axis 0 0 0   XYZ
    dof rx ry rz
    limits (-20.0 45.0)
           (-30.0 30.0)
           (-30.0 30.0)
  end
  begin
     id 13 
     name thorax
     direction -0.00537537 0.998955 -0.0453918   
     length 2.06975   
     axis 0 0 0   XYZ
    dof rx ry rz
    limits (-20.0 45.0)
           (-30.0 30.0)
           (-30.0 30.0)
  end
  begin
     id 14 
     name lowerneck
     direction -0.00013604 0.994111 0.108363   
     length 1.50836   
     axis 0 0 0   XYZ
    dof rx ry rz
    limits (-20.0 45.0)
           (-30.0 30.0)
           (-30.0 30.0)
  end
  begin
     id 15 
     name upperneck
     direction 0.0397262 0.983859 -0.174482   
     length 1.53037   
     axis 0 0 0   XYZ
    dof rx ry rz
    limits (-20.0 45.0)
           (-30.0 30.0)
           (-30.0 30.0)
  end
  begin
     id 16
     name head
     direction 0.0109991 0.997082 -0.0755378  
     length 1.56928  
     axis 0 0 0   XYZ
    dof rx ry rz
    limits (-20.0 45.0)
           (-30.0 30.0)
           (-30.0 30.0)
  end
  begin
     id 17 
     name lclavicle
     direction 0.964749 0.254 -0.068874  
     length 3.26503  
     axis 0 0 0   XYZ
    dof ry rz
    limits (-20.0 10.0)
           (0.0 20.0)
  end
  begin
     id 18 
     name lhumerus
     direction 1 -4.48941e-011 -2.05079e-027   
     length 5.68236   
     axis 180 -30 -90   XYZ
    dof rx ry rz
    limits (-60.0 90.0)
           (-90.0 90.0)
           (-90.0 90.0)
  end
  begin
     id 19
     name lradius
     direction 1 -4.48956e-011 6.2882e-027   
     length 3.17112   
     axis 180 -30 -90   XYZ
    dof rx
    limits (-10.0 170.0)
  end
  begin
     id 20
     name lwrist
     direction 1 -4.49014e-011 1.73219e-026   
     length 1.58556   
     axis -1.04724e-014 90 90   XYZ
    dof ry
    limits (-180.0 0.0)
 end
  begin
     id 21 
     name lhand
     direction 1 -4.49312e-011 3.46438e-026   
     length 0.632691   
     axis -2.21057e-014 90 90   XYZ
    dof rx rz
    limits (-90.0 90.0)
           (-45.0 45.0)
  end
  begin
     id 22 
     name lfingers
     direction 1 -4.48894e-011 6.92876e-026   
     length 0.510091   
     axis -4.42114e-014 90 90   XYZ
    dof rx
    limits (0.0 90.0)
  end
  begin
     id 23
     name lthumb
     direction 0.707107 -6.34705e-011 0.707107   
     length 0.732392   
     axis -90 45 2.85299e-015   XYZ
    dof rx rz
    limits (-45.0 45.0)
           (-45.0 45.0)
  end
  begin
     id 24 
     name rclavicle
     direction -0.954374 0.280496 -0.102435   
     length 3.25419  
     axis 0 0 0   XYZ 
    dof ry rz
    limits (-10.0 20.0)
           (-20.0 0.0)
  end
  begin
     id 25 
     name rhumerus
     direction -1 -4.48994e-011 -1.07204e-017  
     length 5.8712   
     axis 180 30 90   XYZ
    dof rx ry rz
    limits (-90.0 60.0)
           (-90.0 90.0)
           (-90.0 90.0)
  end
  begin
     id 26 
     name rradius
     direction -1 -4.48972e-011 5.89292e-027   
     length 3.37589   
     axis 180 30 90   XYZ
    dof rx
    limits (-10.0 170.0)
  end
  begin
     id 27 
     name rwrist
     direction -1 -4.48942e-011 1.73219e-026   
     length 1.68794   
     axis -1.04724e-014 -90 -90   XYZ
    dof ry
    limits (-180.0 0.0)
  end
  begin
     id 28
     name rhand
     direction -1 -4.48514e-011 3.46438e-026   
     length 0.603257   
     axis -2.21057e-014 -90 -90   XYZ
    dof rx rz
    limits (-90.0 90.0)
           (-45.0 45.0)
  end
  begin
     id 29
     name rfingers
     direction -1 -4.50028e-011 6.92876e-026   
     length 0.486362   
     axis -4.42114e-014 -90 -90   XYZ
    dof rx
    limits (0.0 90.0)
  end
  begin
     id 30
     name rthumb
     direction -0.707107 -6.34926e-011 0.707107   
     length 0.698321   
     axis -90 -45 -2.85299e-015   XYZ
    dof rx rz
    limits (-45.0 45.0)
           (-45.0 45.0)
  end
:hierarchy
  begin
    root lhipjoint rhipjoint lowerback
    lhipjoint lfemur
    lfemur ltibia
    ltibia lfoot
    lfoot ltoes
    rhipjoint rfemur
    rfemur rtibia
    rtibia rfoot
    rfoot rtoes
    lowerback upperback
    upperback thorax
    thorax lowerneck lclavicle rclavicle
    lowerneck upperneck
    upperneck head
    lclavicle lhumerus
    lhumerus lradius
    lradius lwrist
    lwrist lhand lthumb
    lhand lfingers
    rclavicle rhumerus
    rhumerus rradius
    rradius rwrist
    rwrist rhand rthumb
    rhand rfingers
  end

#!OML:ASF I:\Segmentation\Patient Classification 1\Patient 1\Session 1\Patient1.ASF
:FULLY-SPECIFIED
:DEGREES
2547
root 20.2564 15.8572 -0.428872 -575.246 -91.323 206.03
lowerback 12.7829 0.862833 0.0943828
upperback 9.69852 0.580698 1.49496
thorax 3.01527 0.0133991 1.43652
lowerneck -13.9372 -4.26404 -2.75611
upperneck 2.97559 -5.7196 6.30601
head 3.39284 -2.59957 1.9685
rclavicle -4.57205e-015 -2.14687e-014
rhumerus 6.33991 18.965 -92.6967
rradius 100.092
rwrist -48.4558
rhand -37.6749 2.49569
rfingers 7.12502
rthumb -10.7257 -27.2105
lclavicle -4.57205e-015 -2.14687e-014
lhumerus 20.8183 -24.7767 76.5107
lradius 98.4092
lwrist 9.2956
lhand -23.9023 24.1977
lfingers 7.12502
lthumb 2.57169 54.1619
rfemur -39.4892 -8.05622 17.2246
rtibia 60.6865
rfoot -2.83403 2.81866
rtoes 44.1669
lfemur -41.0556 11.5118 -19.5136
ltibia 63.5761
lfoot -14.4489 4.47025
ltoes 0.795316
2548
root 20.2541 15.8574 -0.429955 -577.259 -91.2409 208.055
lowerback 12.7946 0.912768 -0.0117893
upperback 9.7134 0.633517 1.57265
thorax 3.02168 0.0308961 1.57206
lowerneck -13.9608 -4.28011 -2.88232
upperneck 2.96693 -5.72007 6.33076
head 3.39819 -2.59994 1.99577
rclavicle -5.56597e-015 -1.11319e-014
rhumerus 6.30535 18.4948 -92.483
rradius 99.891
rwrist -48.7146
rhand -38.025 2.32497
rfingers 7.12502
rthumb -11.0633 -27.3634
lclavicle -5.56597e-015 -1.11319e-014
lhumerus 20.7505 -24.2916 76.8075
lradius 98.5737
lwrist 9.51935
lhand -24.6551 24.7621
lfingers 7.12502
lthumb 1.84466 54.7338
rfemur -39.5113 -7.965 17.2396
rtibia 60.6817
rfoot -2.80779 2.80403
rtoes 44.1821
lfemur -41.0564 11.5948 -19.4896
ltibia 63.5894
lfoot -14.462 4.466
ltoes 0.787133
2549
root 20.252 15.8578 -0.430923 -580.011 -91.1779 210.824
lowerback 12.8227 0.957118 -0.0736451
upperback 9.7111 0.685575 1.60325
thorax 3.0016 0.0526967 1.63343
lowerneck -14.0299 -4.29684 -2.94413
upperneck 3.03393 -5.73346 6.33436
head 3.43191 -2.60449 2.00389
rclavicle 4.17448e-015 3.18055e-015
rhumerus 6.27968 18.0256 -92.4054
rradius 99.7391
rwrist -48.9434
rhand -38.3175 2.13688
rfingers 7.12502
rthumb -11.3455 -27.5362
lclavicle 4.17448e-015 3.18055e-015
lhumerus 20.6808 -23.9498 77.0611
lradius 98.6918
lwrist 9.70047
lhand -25.5415 25.2961
lfingers 7.12502
lthumb 0.98862 55.2736
rfemur -39.5421 -7.88161 17.2343
rtibia 60.6833
rfoot -2.78526 2.77572
rtoes 44.1596
lfemur -41.059 11.6671 -19.4873
ltibia 63.5983
lfoot -14.4684 4.46781
ltoes 0.763608
2550
root 20.2501 15.8585 -0.431608 -583.26 -91.1417 214.088
lowerback 12.8684 0.993006 -0.111718
upperback 9.69809 0.730173 1.60164
thorax 2.96133 0.073567 1.64832
lowerneck -14.122 -4.30817 -2.95308
upperneck 3.15213 -5.74851 6.312
head 3.48263 -2.60893 1.99468
rclavicle -5.1684e-015 -5.96354e-015
rhumerus 6.29025 17.6016 -92.4342
rradius 99.6049
rwrist -49.0781
rhand -38.5684 1.94652
rfingers 7.12502
rthumb -11.5874 -27.7131
lclavicle -5.1684e-015 -5.96354e-015
lhumerus 20.6147 -23.7444 77.288
lradius 98.7687
lwrist 9.8329
lhand -26.4925 25.7801
lfingers 7.12502
lthumb 0.0700982 55.7598
rfemur -39.5708 -7.8154 17.2072
rtibia 60.6941
rfoot -2.76226 2.7428
rtoes 44.1089
lfemur -41.0536 11.7195 -19.5067
ltibia 63.6007
lfoot -14.4766 4.46723
ltoes 0.784794
2551
root 20.2484 15.8591 -0.431991 -586.092 -91.127 216.927
lowerback 12.9247 1.01783 -0.140196
upperback 9.68499 0.761031 1.5916
thorax 2.91594 0.0882829 1.65025
lowerneck -14.2074 -4.31176 -2.93714
upperneck 3.2762 -5.75664 6.27416
head 3.53258 -2.61035 1.97739
rclavicle 0 1.19271e-015
rhumerus 6.32564 17.2703 -92.5312
rradius 99.4924
rwrist -49.0946
rhand -38.789 1.78088
rfingers 7.12502
rthumb -11.8002 -27.8667
lclavicle 0 1.19271e-015
lhumerus 20.5566 -23.6539 77.5093
lradius 98.8198
lwrist 9.90991
lhand -27.3824 26.2096
lfingers 7.12502
lthumb -0.789389 56.1879
rfemur -39.5909 -7.76948 17.1737
rtibia 60.7136
rfoot -2.74005 2.71586
rtoes 44.06
lfemur -41.0402 11.7438 -19.5304
ltibia 63.5995
lfoot -14.4953 4.46369
ltoes 0.869032
2552
root 20.247 15.8592 -0.432201 -587.842 -91.1219 218.68
lowerback 12.9772 1.02972 -0.162554
upperback 9.6798 0.774441 1.58723
thorax 2.88161 0.093972 1.65646
lowerneck -14.2739 -4.30757 -2.91275
upperneck 3.37758 -5.75442 6.22676
head 3.57162 -2.60783 1.95716
rclavicle 6.36111e-015 1.03368e-014
rhumerus 6.39118 17.0734 -92.6672
rradius 99.4089
rwrist -49.0181
rhand -39.005 1.67481
rfingers 7.12502
rthumb -12.0085 -27.9607
lclavicle 6.36111e-015 1.03368e-014
lhumerus 20.5045 -23.6612 77.7275
lradius 98.8609
lwrist 9.93915
lhand -28.06 26.5625
lfingers 7.12502
lthumb -1.44385 56.5373
rfemur -39.6047 -7.7371 17.1477
rtibia 60.7392
rfoot -2.72269 2.70009
rtoes 44.0333
lfemur -41.0278 11.7389 -19.5433
ltibia 63.5995
lfoot -14.5282 4.46357
ltoes 0.968486
2553
root 20.2459 15.8588 -0.432355 -588.563 -91.1194 219.406
lowerback 13.011 1.0286 -0.17942
upperback 9.6849 0.770179 1.58986
thorax 2.86889 0.0904001 1.66889
lowerneck -14.3163 -4.29681 -2.89158
upperneck 3.4416 -5.74141 6.17578
head 3.59491 -2.60144 1.93794
rclavicle -8.34896e-015 -1.66979e-014
rhumerus 6.49308 17.0427 -92.8216
rradius 99.3733
rwrist -48.8994
rhand -39.23 1.67428
rfingers 7.12502
rthumb -12.2254 -27.9484
lclavicle -8.34896e-015 -1.66979e-014
lhumerus 20.4525 -23.7646 77.929
lradius 98.8942
lwrist 9.93788
lhand -28.4163 26.7933
lfingers 7.12502
lthumb -1.78799 56.7655
rfemur -39.6201 -7.7109 17.1315
rtibia 60.7679
rfoot -2.71155 2.69167
rtoes 44.022
lfemur -41.0267 11.7081 -19.5441
ltibia 63.6043
lfoot -14.5731 4.47283
ltoes 1.03267
2554
root 20.2449 15.8579 -0.432503 -588.701 -91.1188 219.555
lowerback 13.0184 1.01568 -0.178744
upperback 9.69876 0.751572 1.58404
thorax 2.88044 0.0805124 1.66435
lowerneck -14.3359 -4.27908 -2.86576
upperneck 3.46952 -5.71902 6.12649
head 3.6031 -2.59147 1.91995
rclavicle 9.34288e-015 1.55052e-014
rhumerus 6.63435 17.1834 -93.0013
rradius 99.3982
rwrist -48.7672
rhand -39.4466 1.79834
rfingers 7.12502
rthumb -12.4343 -27.8118
lclavicle 9.34288e-015 1.55052e-014
lhumerus 20.403 -23.9911 78.0709
lradius 98.9044
lwrist 9.91476
lhand -28.4271 26.8643
lfingers 7.12502
lthumb -1.79846 56.8365
rfemur -39.6423 -7.69187 17.1216
rtibia 60.7978
rfoot -2.69837 2.68457
rtoes 44.0153
lfemur -41.0405 11.6593 -19.5399
ltibia 63.6155
lfoot -14.6226 4.49037
ltoes 1.05021
2555
root 20.244 15.8567 -0.432718 -588.509 -91.1182 219.385
lowerback 12.9985 0.99221 -0.133336
upperback 9.71784 0.723682 1.54581
thorax 2.9134 0.0692772 1.60197
lowerneck -14.3464 -4.25407 -2.80796
upperneck 3.47947 -5.69286 6.0836
head 3.60359 -2.5795 1.89944
rclavicle 2.18663e-015 1.19271e-014
rhumerus 6.81894 17.472 -93.2388
rradius 99.4821
rwrist -48.616
rhand -39.6083 2.01422
rfingers 7.12502
rthumb -12.5902 -27.5864
lclavicle 2.18663e-015 1.19271e-014
lhumerus 20.3753 -24.3856 78.0941
lradius 98.8675
lwrist 9.86381
lhand -28.1638 26.7838
lfingers 7.12502
lthumb -1.54412 56.758
rfemur -39.6744 -7.68252 17.1198
rtibia 60.8261
rfoot -2.67521 2.68168
rtoes 44.0182
lfemur -41.0696 11.6023 -19.5329
ltibia 63.6333
lfoot -14.6695 4.51096
ltoes 1.03577
2556
root 20.243 15.8551 -0.433073 -587.862 -91.1127 218.773
lowerback 12.9578 0.960669 -0.0382454
upperback 9.73698 0.690628 1.47526
thorax 2.95859 0.0592765 1.47856
lowerneck -14.3734 -4.22611 -2.70609
upperneck 3.49986 -5.67108 6.0393
head 3.60887 -2.56873 1.87077
rclavicle -5.36719e-015 -1.63003e-014
rhumerus 7.04641 17.8972 -93.5323
rradius 99.6231
rwrist -48.4452
rhand -39.6522 2.26919
rfingers 7.12502
rthumb -12.6325 -27.3288
lclavicle -5.36719e-015 -1.63003e-014
lhumerus 20.3917 -24.9714 77.9773
lradius 98.7585
lwrist 9.76555
lhand -27.7542 26.6141
lfingers 7.12502
lthumb -1.14854 56.5908
rfemur -39.7187 -7.68106 17.1341
rtibia 60.8487
rfoot -2.64592 2.68849
rtoes 44.0396
lfemur -41.1158 11.5411 -19.5168
ltibia 63.6559
lfoot -14.7095 4.53122
ltoes 1.02069
2557
root 20.2421 15.8535 -0.433541 -586.995 -91.1024 217.95
lowerback 12.9104 0.929509 0.0543069
upperback 9.75231 0.658165 1.4083
thorax 3.00306 0.0495964 1.36026
lowerneck -14.4407 -4.20117 -2.58505
upperneck 3.55867 -5.65581 5.96996
head 3.63117 -2.56067 1.82988
rclavicle -2.18663e-015 -1.59028e-015
rhumerus 7.30752 18.4844 -93.8122
rradius 99.8231
rwrist -48.2706
rhand -39.5453 2.49537
rfingers 7.12502
rthumb -12.5294 -27.109
lclavicle -2.18663e-015 -1.59028e-015
lhumerus 20.4631 -25.7333 77.7551
lradius 98.5565
lwrist 9.59451
lhand -27.2811 26.449
lfingers 7.12502
lthumb -0.691574 56.4276
rfemur -39.771 -7.68035 17.1603
rtibia 60.8607
rfoot -2.62003 2.70462
rtoes 44.084
lfemur -41.1728 11.4825 -19.4941
ltibia 63.679
lfoot -14.74 4.54921
ltoes 1.00643
2558
root 20.2411 15.8525 -0.433972 -586.972 -91.0946 217.971
lowerback 12.8722 0.91065 0.0661946
upperback 9.76059 0.634213 1.38412
thorax 3.03329 0.0388336 1.331
lowerneck -14.5362 -4.18084 -2.48982
upperneck 3.66136 -5.63997 5.8634
head 3.67077 -2.55303 1.78091
rclavicle -2.98177e-015 -4.37326e-015
rhumerus 7.58534 19.2731 -93.9864
rradius 100.077
rwrist -48.1059
rhand -39.2865 2.63721
rfingers 7.12502
rthumb -12.2799 -26.9822
lclavicle -2.98177e-015 -4.37326e-015
lhumerus 20.5807 -26.6377 77.4762
lradius 98.2515
lwrist 9.34527
lhand -26.7251 26.368
lfingers 7.12502
lthumb -0.154552 56.3477
rfemur -39.8173 -7.66701 17.1728
rtibia 60.8594
rfoot -2.60816 2.724
rtoes 44.1343
lfemur -41.2198 11.4408 -19.4858
ltibia 63.6942
lfoot -14.7646 4.56637
ltoes 0.941484
2559
root 20.2402 15.853 -0.434217 -588.545 -91.0958 219.572
lowerback 12.8545 0.909518 -0.0379868
upperback 9.76128 0.622404 1.41682
thorax 3.04219 0.0263892 1.42494
lowerneck -14.6213 -4.16224 -2.45442
upperneck 3.7856 -5.61378 5.73315
head 3.71575 -2.54194 1.73501
rclavicle -6.95746e-015 -1.43125e-014
rhumerus 7.86981 20.2837 -93.9968
rradius 100.374
rwrist -47.9849
rhand -38.8753 2.73483
rfingers 7.12502
rthumb -11.8834 -26.9079
lclavicle -6.95746e-015 -1.43125e-014
lhumerus 20.7328 -27.6567 77.1545
lradius 97.8389
lwrist 9.04395
lhand -26.0306 26.3715
lfingers 7.12502
lthumb 0.516223 56.3507
rfemur -39.8416 -7.6341 17.1517
rtibia 60.8468
rfoot -2.61691 2.73601
rtoes 44.1507
lfemur -41.2364 11.4232 -19.5065
ltibia 63.696
lfoot -14.7919 4.5867
ltoes 0.79783
2560
root 20.2394 15.8544 -0.434386 -591.049 -91.1052 222.085
lowerback 12.8562 0.922889 -0.217893
upperback 9.76061 0.621917 1.49002
thorax 3.03779 0.0142424 1.60252
lowerneck -14.6736 -4.14285 -2.4814
upperneck 3.90347 -5.57519 5.61103
head 3.75513 -2.52593 1.70309
rclavicle 4.57205e-015 -4.77083e-015
rhumerus 8.16747 21.4949 -93.8492
rradius 100.711
rwrist -47.9466
rhand -38.3888 2.86242
rfingers 7.12502
rthumb -11.4142 -26.8069
lclavicle 4.57205e-015 -4.77083e-015
lhumerus 20.9376 -28.7869 76.7463
lradius 97.3134
lwrist 8.72313
lhand -25.2149 26.3968
lfingers 7.12502
lthumb 1.30399 56.3726
rfemur -39.8397 -7.59127 17.1084
rtibia 60.8297
rfoot -2.63798 2.73496
rtoes 44.1192
lfemur -41.2214 11.4223 -19.5441
ltibia 63.687
lfoot -14.8241 4.60969
ltoes 0.607629
2561
root 20.2391 15.856 -0.434841 -592.911 -91.1094 223.945
lowerback 12.8597 0.942574 -0.381437
upperback 9.76393 0.63087 1.56653
thorax 3.03669 0.00738826 1.7735
lowerneck -14.6903 -4.12354 -2.53867
upperneck 3.99574 -5.53395 5.5301
head 3.78321 -2.50817 1.68963
rclavicle -8.54774e-015 -9.14409e-015
rhumerus 8.48607 22.8238 -93.6135
rradius 101.082
rwrist -47.9817
rhand -38.0333 2.96844
rfingers 7.12502
rthumb -11.0714 -26.7195
lclavicle -8.54774e-015 -9.14409e-015
lhumerus 21.2328 -30.0388 76.1792
lradius 96.6844
lwrist 8.40806
lhand -24.45 26.4823
lfingers 7.12502
lthumb 2.04275 56.4523
rfemur -39.8294 -7.55449 17.0812
rtibia 60.8163
rfoot -2.65467 2.72901
rtoes 44.0769
lfemur -41.2002 11.4266 -19.5665
ltibia 63.6762
lfoot -14.8538 4.6309
ltoes 0.434144
